<?xml version="1.0" encoding="UTF-8"?>
<svg width="24" height="24" fill="none" version="1.1" viewBox="0 0 24 24" xmlns="http://www.w3.org/2000/svg">
 <g>
  <path d="m24 12c0 6.6-5.4 12-12 12-6.6 0-12-5.4-12-12 0-6.6 5.4-12 12-12 6.6 0 12 5.4 12 12z" clip-rule="evenodd" fill="#000" fill-rule="evenodd" stroke-width="1.1"/>
  <path d="m21 12c0 5-4 9-9 9-5 0-9-4-9-9 0-5 4-9 9-9 5 0 9 4 9 9z" clip-rule="evenodd" fill="#fff" fill-rule="evenodd" stroke-width=".82"/>
  <path class="UnoptimicedTransforms" d="m7.4 9.3c-3 4.1 0.028 9.9 1.2 12 0.91 1.9 2.6 1.4 3.4 1.1 0.75 0.31 2.5 0.74 3.4-1.1 1.2-2.4 4.2-8.2 1.2-12-0.24 0.36-3.8 8-4.6 9.5-0.81-1.4-4.3-9.1-4.6-9.5z" fill="#000" stroke-linecap="round" stroke-linejoin="round" stroke-width="1.1"/>
  <path class="UnoptimicedTransforms" transform="translate(0 -.32)" d="m12 1.1c-1.1 0.15-4.8 0.68-4.6 1 0.13 0.35 3.3 6.4 4.6 9.4 1.3-3.1 4.5-9.1 4.6-9.4 0.13-0.36-3.5-0.88-4.6-1z" fill="#000" stroke-linecap="round" stroke-linejoin="round" stroke-width="1.1"/>
 </g>
</svg>
